<svg width="34" height="47" viewBox="0 0 34 47" fill="none" xmlns="http://www.w3.org/2000/svg">
<path fill-rule="evenodd" clip-rule="evenodd" d="M0.708984 1.74333V44.3163C0.708984 45.46 1.70689 46.375 2.95426 46.375H13.7649C14.4301 46.375 14.9845 45.8667 14.9845 45.2567V35.7C14.9845 34.6833 15.7884 33.7683 16.8972 33.6667C18.1723 33.565 19.2256 34.48 19.2256 35.6238V45.2567C19.2256 45.8667 19.78 46.375 20.4453 46.375H31.5054C32.7527 46.375 33.7506 45.46 33.7506 44.3163V1.74333C33.7506 1.13333 33.1963 0.625 32.531 0.625H1.92864C1.26337 0.625 0.708984 1.13333 0.708984 1.74333ZM17.2568 12.9272C18.2519 12.9272 19.0586 12.1876 19.0586 11.2751C19.0586 10.3627 18.2519 9.62305 17.2568 9.62305C16.2618 9.62305 15.4551 10.3627 15.4551 11.2751C15.4551 12.1876 16.2618 12.9272 17.2568 12.9272ZM26.9317 11.2751C26.9317 12.1876 26.125 12.9272 25.1299 12.9272C24.1348 12.9272 23.3281 12.1876 23.3281 11.2751C23.3281 10.3627 24.1348 9.62305 25.1299 9.62305C26.125 9.62305 26.9317 10.3627 26.9317 11.2751ZM9.35841 12.9272C10.3535 12.9272 11.1602 12.1876 11.1602 11.2751C11.1602 10.3627 10.3535 9.62305 9.35841 9.62305C8.36332 9.62305 7.55664 10.3627 7.55664 11.2751C7.55664 12.1876 8.36332 12.9272 9.35841 12.9272ZM19.0586 21.8493C19.0586 22.7618 18.2519 23.5014 17.2568 23.5014C16.2618 23.5014 15.4551 22.7618 15.4551 21.8493C15.4551 20.9369 16.2618 20.1973 17.2568 20.1973C18.2519 20.1973 19.0586 20.9369 19.0586 21.8493ZM25.1299 23.5014C26.125 23.5014 26.9317 22.7618 26.9317 21.8493C26.9317 20.9369 26.125 20.1973 25.1299 20.1973C24.1348 20.1973 23.3281 20.9369 23.3281 21.8493C23.3281 22.7618 24.1348 23.5014 25.1299 23.5014ZM11.1602 21.8493C11.1602 22.7618 10.3535 23.5014 9.35841 23.5014C8.36332 23.5014 7.55664 22.7618 7.55664 21.8493C7.55664 20.9369 8.36332 20.1973 9.35841 20.1973C10.3535 20.1973 11.1602 20.9369 11.1602 21.8493Z" fill="#FF5F05"/>
</svg>
